<?xml version="1.0" encoding="UTF-8"?>
<svg width="24px" height="24px" viewBox="0 0 24 24" version="1.1" xmlns="http://www.w3.org/2000/svg">
    <g stroke="none" stroke-width="1" fill="#BC1E2C" fill-rule="evenodd">
        <path d="M24,12.073 C24,18.062 19.606,23.027 13.87,23.927 L13.87,15.831 L16.659,15.831 L17.19,12.311 L13.87,12.311 L13.87,10.017 C13.87,9.043 14.347,8.096 15.887,8.096 L17.337,8.096 L17.337,5.093 C17.337,5.093 15.914,4.817 14.561,4.817 C11.726,4.817 9.91,6.51 9.91,9.617 L9.91,12.311 L6.863,12.311 L6.863,15.831 L9.91,15.831 L9.91,23.927 C4.174,23.027 -0.22,18.062 -0.22,12.073 C-0.22,5.446 5.146,0.08 11.773,0.08 C18.399,0.08 24,5.445 24,12.073 Z" fill-rule="nonzero"></path>
    </g>
</svg>
