<?xml version="1.0" encoding="UTF-8"?>
<svg width="24px" height="24px" viewBox="0 0 24 24" version="1.1" xmlns="http://www.w3.org/2000/svg">
    <g stroke="none" stroke-width="1" fill="#BC1E2C" fill-rule="evenodd">
        <path d="M17.498,15.514 L17.498,21.999 L14.706,21.999 L14.706,15.835 C14.706,14.71 14.275,13.942 13.237,13.942 C12.508,13.942 12.077,14.469 11.871,14.912 C11.799,15.082 11.777,15.321 11.777,15.561 L11.777,22 L8.984,22 C8.984,22 9.02,12.745 8.984,11.963 L11.777,11.963 L11.777,13.309 L11.75,13.309 C12.131,12.725 12.856,11.873 14.255,11.873 C16.003,11.873 17.498,13.107 17.498,15.514 Z M5.092,7 C4.104,7 3.5,7.607 3.5,8.395 C3.5,9.162 4.082,9.791 5.048,9.791 L5.07,9.791 C6.08,9.791 6.661,9.162 6.661,8.395 C6.639,7.607 6.08,7 5.092,7 Z M3.674,21.999 L6.466,21.999 L6.466,11.963 L3.674,11.963 L3.674,21.999 Z M19,2 L3,2 C1.343,2 0,3.343 0,5 L0,21 C0,22.657 1.343,24 3,24 L19,24 C20.657,24 22,22.657 22,21 L22,5 C22,3.343 20.657,2 19,2 Z" fill-rule="nonzero"></path>
    </g>
</svg>
