<?xml version="1.0" encoding="UTF-8"?>
<svg width="24px" height="24px" viewBox="0 0 24 24" version="1.1" xmlns="http://www.w3.org/2000/svg">
    <g stroke="none" stroke-width="1" fill="#BC1E2C" fill-rule="evenodd">
        <path d="M20.4,3.6 C18.2,1.4 15.2,0 12,0 C5.4,0 0,5.4 0,12 C0,14.1 0.6,16.1 1.7,17.9 L0,24 L6.3,22.3 C8,23.3 10,23.9 12,23.9 C18.6,23.9 24,18.5 24,11.9 C24,8.7 22.6,5.8 20.4,3.6 Z M12,21.9 C10.2,21.9 8.5,21.3 7,20.2 L6.7,20 L2.9,21 L3.9,17.3 L3.7,17 C2.5,15.5 1.9,13.7 1.9,11.9 C1.9,6.4 6.4,1.9 11.9,1.9 C14.6,1.9 17.1,3 18.9,4.8 C20.7,6.6 21.9,9.1 21.9,11.8 C22,17.3 17.5,21.9 12,21.9 Z M17.4,14.5 C17.1,14.4 15.7,13.7 15.4,13.6 C15.1,13.5 14.9,13.5 14.7,13.8 C14.5,14.1 13.9,14.7 13.7,14.9 C13.5,15.1 13.4,15.1 13.1,15 C12.8,14.9 11.9,14.6 10.9,13.7 C10.1,13 9.5,12.1 9.4,11.8 C9.2,11.5 9.4,11.3 9.5,11.2 C9.6,11.1 9.8,10.9 9.9,10.7 C10,10.5 10.1,10.4 10.2,10.2 C10.3,10 10.2,9.8 10.1,9.7 C10,9.6 9.5,8.2 9.2,7.6 C9,7 8.7,7.1 8.5,7.1 L8.1,7.1 C7.9,7.1 7.6,7.2 7.3,7.5 C7,7.8 6.3,8.5 6.3,9.9 C6.3,11.3 7.3,12.7 7.4,12.9 C7.5,13.1 9.5,16.1 12.4,17.3 C13.1,17.6 13.6,17.8 14,17.9 C14.7,18.1 15.3,18.1 15.8,18 C16.4,17.9 17.5,17.3 17.8,16.6 C18.1,15.9 18.1,15.3 18,15.2 C17.9,15.1 17.7,15 17.4,14.5 Z" fill-rule="nonzero"></path>
    </g>
</svg>
